<svg xmlns="http://www.w3.org/2000/svg" xmlns:xlink="http://www.w3.org/1999/xlink" xmlns:lucid="lucid" width="2239" height="2220"><g transform="translate(-280 -60)" lucid:page-tab-id="0_0"><path d="M359.75 499.75c0 10.9-8.84 19.75-19.75 19.75-10.9 0-19.75-8.84-19.75-19.75 0-10.9 8.84-19.75 19.75-19.75 10.9 0 19.75 8.84 19.75 19.75z" stroke="#000" stroke-width="2" fill="#fff"/><path d="M340 519.5v55.3l40 63.2m-40-63.2L300 638m0-98.75h80" stroke="#000" stroke-width="2" fill="none"/><path d="M300 480h80v180h-80z" fill="none"/><use xlink:href="#a" transform="matrix(1,0,0,1,220,638) translate(92.075 14.6)"/><path d="M880 300c0 33.14-35.82 60-80 60s-80-26.86-80-60 35.82-60 80-60 80 26.86 80 60z" stroke="#000" stroke-width="2" fill="#fff"/><use xlink:href="#b" transform="matrix(1,0,0,1,720,240) translate(21.604999999999997 51.9)"/><use xlink:href="#c" transform="matrix(1,0,0,1,720,240) translate(118.40500000000002 51.9)"/><use xlink:href="#d" transform="matrix(1,0,0,1,720,240) translate(39.57999999999999 73.5)"/><use xlink:href="#e" transform="matrix(1,0,0,1,720,240) translate(58.529999999999994 73.5)"/><path d="M880 640c0 33.14-35.82 60-80 60s-80-26.86-80-60 35.82-60 80-60 80 26.86 80 60z" stroke="#000" stroke-width="2" fill="#fff"/><use xlink:href="#f" transform="matrix(1,0,0,1,720,580) translate(19.104999999999997 51.9)"/><use xlink:href="#g" transform="matrix(1,0,0,1,720,580) translate(96.90500000000002 51.9)"/><use xlink:href="#h" transform="matrix(1,0,0,1,720,580) translate(36.05499999999999 73.5)"/><path d="M880 1120c0 33.14-35.82 60-80 60s-80-26.86-80-60 35.82-60 80-60 80 26.86 80 60z" stroke="#000" stroke-width="2" fill="#fff"/><use xlink:href="#i" transform="matrix(1,0,0,1,720,1060) translate(54.055 29.4)"/><use xlink:href="#j" transform="matrix(1,0,0,1,720,1060) translate(31.054999999999993 51)"/><use xlink:href="#k" transform="matrix(1,0,0,1,720,1060) translate(115.005 51)"/><use xlink:href="#l" transform="matrix(1,0,0,1,720,1060) translate(42.58 72.60000000000001)"/><use xlink:href="#m" transform="matrix(1,0,0,1,720,1060) translate(97.43 72.60000000000001)"/><use xlink:href="#n" transform="matrix(1,0,0,1,720,1060) translate(45.555 94.20000000000002)"/><path d="M880 1280c0 33.14-35.82 60-80 60s-80-26.86-80-60 35.82-60 80-60 80 26.86 80 60z" stroke="#000" stroke-width="2" fill="#fff"/><use xlink:href="#o" transform="matrix(1,0,0,1,720,1220) translate(43.605 29.4)"/><use xlink:href="#d" transform="matrix(1,0,0,1,720,1220) translate(30.574999999999996 51)"/><use xlink:href="#p" transform="matrix(1,0,0,1,720,1220) translate(49.525 51)"/><use xlink:href="#q" transform="matrix(1,0,0,1,720,1220) translate(108.475 51)"/><use xlink:href="#l" transform="matrix(1,0,0,1,720,1220) translate(45.575 72.60000000000001)"/><use xlink:href="#m" transform="matrix(1,0,0,1,720,1220) translate(100.425 72.60000000000001)"/><use xlink:href="#n" transform="matrix(1,0,0,1,720,1220) translate(45.555 94.20000000000002)"/><path d="M940 1440c0 33.14-49.25 60-110 60s-110-26.86-110-60 49.25-60 110-60 110 26.86 110 60z" stroke="#000" stroke-width="2" fill="#fff"/><use xlink:href="#r" transform="matrix(1,0,0,1,720,1380) translate(61.154999999999994 29.4)"/><use xlink:href="#s" transform="matrix(1,0,0,1,720,1380) translate(144.90500000000003 29.4)"/><use xlink:href="#p" transform="matrix(1,0,0,1,720,1380) translate(38.08 51)"/><use xlink:href="#t" transform="matrix(1,0,0,1,720,1380) translate(97.03 51)"/><use xlink:href="#u" transform="matrix(1,0,0,1,720,1380) translate(111.03 51)"/><use xlink:href="#m" transform="matrix(1,0,0,1,720,1380) translate(161.93 51)"/><use xlink:href="#v" transform="matrix(1,0,0,1,720,1380) translate(37.099999999999994 72.60000000000001)"/><use xlink:href="#w" transform="matrix(1,0,0,1,720,1380) translate(82.1 72.60000000000001)"/><use xlink:href="#l" transform="matrix(1,0,0,1,720,1380) translate(111.05 72.60000000000001)"/><use xlink:href="#m" transform="matrix(1,0,0,1,720,1380) translate(165.9 72.60000000000001)"/><use xlink:href="#x" transform="matrix(1,0,0,1,720,1380) translate(75.555 96.86666666666667)"/><path d="M880 1600c0 33.14-35.82 60-80 60s-80-26.86-80-60 35.82-60 80-60 80 26.86 80 60z" stroke="#000" stroke-width="2" fill="#fff"/><use xlink:href="#y" transform="matrix(1,0,0,1,720,1540) translate(43.275 51.9)"/><use xlink:href="#z" transform="matrix(1,0,0,1,720,1540) translate(43.525 73.5)"/><path d="M880 800c0 33.14-35.82 60-80 60s-80-26.86-80-60 35.82-60 80-60 80 26.86 80 60z" stroke="#000" stroke-width="2" fill="#fff"/><use xlink:href="#A" transform="matrix(1,0,0,1,720,740) translate(46.10499999999999 40.65)"/><use xlink:href="#B" transform="matrix(1,0,0,1,720,740) translate(28.025000000000006 62.25)"/><use xlink:href="#m" transform="matrix(1,0,0,1,720,740) translate(121.97500000000001 62.25)"/><use xlink:href="#C" transform="matrix(1,0,0,1,720,740) translate(51.504999999999995 83.85000000000001)"/><path d="M341 558.86h189V1280h188M342 543.86v30" stroke="#000" stroke-width="2" fill="none"/><path d="M719 1280v.4l.03.6h-1.06v-2h1.06z"/><path d="M341 558.86h189V1440h188M342 543.86v30" stroke="#000" stroke-width="2" fill="none"/><path d="M719 1440v.88l.02.12h-1.05v-2h1.05z"/><path d="M341 558.86h189V1600h188M342 543.86v30" stroke="#000" stroke-width="2" fill="none"/><path d="M719 1600v.4l.03.6h-1.06v-2h1.06z"/><path d="M342 558.86h188V640h188M342.03 558.86H338" stroke="#000" stroke-width="2" fill="none"/><path d="M719 640v.4l.03.6h-1.06v-2h1.06z"/><path d="M342 558.86h188V300h188M342.03 558.86H338" stroke="#000" stroke-width="2" fill="none"/><path d="M719 300v.4l.03.6h-1.06v-2h1.06z"/><path d="M342 558.86h188V1120h188M342.03 558.86H338" stroke="#000" stroke-width="2" fill="none"/><path d="M719 1120v.4l.03.6h-1.06v-2h1.06z"/><path d="M880 960c0 33.14-35.82 60-80 60s-80-26.86-80-60 35.82-60 80-60 80 26.86 80 60z" stroke="#000" stroke-width="2" fill="#fff"/><use xlink:href="#D" transform="matrix(1,0,0,1,720,900) translate(23.125 63.15)"/><use xlink:href="#E" transform="matrix(1,0,0,1,720,900) translate(92.875 63.15)"/><path d="M880 460c0 33.14-35.82 60-80 60s-80-26.86-80-60 35.82-60 80-60 80 26.86 80 60z" stroke="#000" stroke-width="2" fill="#fff"/><use xlink:href="#F" transform="matrix(1,0,0,1,720,400) translate(37.55499999999999 40.65)"/><use xlink:href="#k" transform="matrix(1,0,0,1,720,400) translate(108.505 40.65)"/><use xlink:href="#G" transform="matrix(1,0,0,1,720,400) translate(29.57499999999999 62.25)"/><use xlink:href="#H" transform="matrix(1,0,0,1,720,400) translate(96.475 62.25)"/><use xlink:href="#I" transform="matrix(1,0,0,1,720,400) translate(54.05500000000001 83.85000000000001)"/><path d="M880 1760c0 33.14-35.82 60-80 60s-80-26.86-80-60 35.82-60 80-60 80 26.86 80 60z" stroke="#000" stroke-width="2" fill="#fff"/><use xlink:href="#J" transform="matrix(1,0,0,1,720,1700) translate(54.025 51.9)"/><use xlink:href="#K" transform="matrix(1,0,0,1,720,1700) translate(43.525 73.5)"/><path d="M1260 1660c0 33.14-35.82 60-80 60s-80-26.86-80-60 35.82-60 80-60 80 26.86 80 60z" stroke="#000" stroke-width="2" fill="#fff"/><use xlink:href="#L" transform="matrix(1,0,0,1,1100,1600) translate(26.549999999999997 63.15)"/><use xlink:href="#M" transform="matrix(1,0,0,1,1100,1600) translate(59.5 63.15)"/><path d="M1260 1860c0 33.14-35.82 60-80 60s-80-26.86-80-60 35.82-60 80-60 80 26.86 80 60z" stroke="#000" stroke-width="2" fill="#fff"/><use xlink:href="#L" transform="matrix(1,0,0,1,1100,1800) translate(38.074999999999996 63.15)"/><use xlink:href="#N" transform="matrix(1,0,0,1,1100,1800) translate(71.025 63.15)"/><path d="M1098 1660H990v100h-90.5" stroke="#000" stroke-width="2" fill="none"/><path d="M1099 1660v.4l.03.6h-1.06v-2h1.06z"/><path d="M884.24 1760l14.26-4.64v9.28z" stroke="#000" stroke-width="2"/><path d="M1098 1860H990v-100h-90.5" stroke="#000" stroke-width="2" fill="none"/><path d="M1099 1860v.4l.03.6h-1.06v-2h1.06z"/><path d="M884.24 1760l14.26-4.64v9.28z" stroke="#000" stroke-width="2"/><path d="M342 558.86h188V1760h188M342.03 558.86H338" stroke="#000" stroke-width="2" fill="none"/><path d="M719 1760v.4l.03.6h-1.06v-2h1.06z"/><path d="M1599.75 319.75c0 10.9-8.84 19.75-19.75 19.75-10.9 0-19.75-8.84-19.75-19.75 0-10.9 8.84-19.75 19.75-19.75 10.9 0 19.75 8.84 19.75 19.75z" stroke="#000" stroke-width="2" fill="#fff"/><path d="M1580 339.5v55.3l40 63.2m-40-63.2l-40 63.2m0-98.75h80" stroke="#000" stroke-width="2" fill="none"/><path d="M1540 300h80v180h-80z" fill="none"/><use xlink:href="#O" transform="matrix(1,0,0,1,1460,458) translate(64.625 14.6)"/><path d="M2120 820c0 33.14-35.82 60-80 60s-80-26.86-80-60 35.82-60 80-60 80 26.86 80 60z" stroke="#000" stroke-width="2" fill="#fff"/><use xlink:href="#f" transform="matrix(1,0,0,1,1960,760) translate(31.10499999999999 51.9)"/><use xlink:href="#P" transform="matrix(1,0,0,1,1960,760) translate(108.905 51.9)"/><use xlink:href="#Q" transform="matrix(1,0,0,1,1960,760) translate(45.029999999999994 73.5)"/><path d="M2120 980c0 33.14-35.82 60-80 60s-80-26.86-80-60 35.82-60 80-60 80 26.86 80 60z" stroke="#000" stroke-width="2" fill="#fff"/><use xlink:href="#R" transform="matrix(1,0,0,1,1960,920) translate(23.07499999999999 51.9)"/><use xlink:href="#S" transform="matrix(1,0,0,1,1960,920) translate(56.974999999999994 51.9)"/><use xlink:href="#T" transform="matrix(1,0,0,1,1960,920) translate(81.975 51.9)"/><use xlink:href="#P" transform="matrix(1,0,0,1,1960,920) translate(120.925 51.9)"/><use xlink:href="#Q" transform="matrix(1,0,0,1,1960,920) translate(48.025 73.5)"/><path d="M2120 1160c0 33.14-35.82 60-80 60s-80-26.86-80-60 35.82-60 80-60 80 26.86 80 60z" stroke="#000" stroke-width="2" fill="#fff"/><use xlink:href="#U" transform="matrix(1,0,0,1,1960,1100) translate(38.55 51.9)"/><use xlink:href="#V" transform="matrix(1,0,0,1,1960,1100) translate(95.45 51.9)"/><use xlink:href="#W" transform="matrix(1,0,0,1,1960,1100) translate(41.075 73.5)"/><path d="M2120 1340c0 33.14-35.82 60-80 60s-80-26.86-80-60 35.82-60 80-60 80 26.86 80 60z" stroke="#000" stroke-width="2" fill="#fff"/><use xlink:href="#f" transform="matrix(1,0,0,1,1960,1280) translate(28.099999999999994 51.9)"/><use xlink:href="#V" transform="matrix(1,0,0,1,1960,1280) translate(105.9 51.9)"/><use xlink:href="#W" transform="matrix(1,0,0,1,1960,1280) translate(41.075 73.5)"/><path d="M2120 460c0 33.14-35.82 60-80 60s-80-26.86-80-60 35.82-60 80-60 80 26.86 80 60z" stroke="#000" stroke-width="2" fill="#fff"/><use xlink:href="#A" transform="matrix(1,0,0,1,1960,400) translate(46.10499999999999 40.65)"/><use xlink:href="#B" transform="matrix(1,0,0,1,1960,400) translate(28.025000000000006 62.25)"/><use xlink:href="#m" transform="matrix(1,0,0,1,1960,400) translate(121.97500000000001 62.25)"/><use xlink:href="#C" transform="matrix(1,0,0,1,1960,400) translate(51.504999999999995 83.85000000000001)"/><path d="M1581 378.86h189V980h188M1582 363.86v30" stroke="#000" stroke-width="2" fill="none"/><path d="M1959 980v.4l.03.6h-1.06v-2h1.06z"/><path d="M1581 378.86h189V1160h188M1582 363.86v30" stroke="#000" stroke-width="2" fill="none"/><path d="M1959 1160v.4l.03.6h-1.06v-2h1.06z"/><path d="M1581 378.86h189V1340h188M1582 363.86v30" stroke="#000" stroke-width="2" fill="none"/><path d="M1959 1340v.4l.03.6h-1.06v-2h1.06z"/><path d="M1582 378.86h188V460h188M1582.03 378.86H1578" stroke="#000" stroke-width="2" fill="none"/><path d="M1959 460v.4l.03.6h-1.06v-2h1.06z"/><path d="M1582 378.86h188V820h188M1582.03 378.86H1578" stroke="#000" stroke-width="2" fill="none"/><path d="M1959 820v.4l.03.6h-1.06v-2h1.06z"/><path d="M2120 640c0 33.14-35.82 60-80 60s-80-26.86-80-60 35.82-60 80-60 80 26.86 80 60z" stroke="#000" stroke-width="2" fill="#fff"/><g><use xlink:href="#U" transform="matrix(1,0,0,1,1960,580) translate(43.55 51.9)"/><use xlink:href="#P" transform="matrix(1,0,0,1,1960,580) translate(100.45 51.9)"/><use xlink:href="#Q" transform="matrix(1,0,0,1,1960,580) translate(48.025 73.5)"/></g><path d="M2120 280c0 33.14-35.82 60-80 60s-80-26.86-80-60 35.82-60 80-60 80 26.86 80 60z" stroke="#000" stroke-width="2" fill="#fff"/><g><use xlink:href="#F" transform="matrix(1,0,0,1,1960,220) translate(37.55499999999999 40.65)"/><use xlink:href="#k" transform="matrix(1,0,0,1,1960,220) translate(108.505 40.65)"/><use xlink:href="#G" transform="matrix(1,0,0,1,1960,220) translate(29.57499999999999 62.25)"/><use xlink:href="#H" transform="matrix(1,0,0,1,1960,220) translate(96.475 62.25)"/><use xlink:href="#X" transform="matrix(1,0,0,1,1960,220) translate(25.629999999999992 83.85000000000001)"/></g><path d="M2119 1741.14c0 33.13-35.82 60-80 60s-80-26.87-80-60c0-33.14 35.82-60 80-60s80 26.86 80 60z" stroke="#000" stroke-width="2" fill="#fff"/><g><use xlink:href="#J" transform="matrix(1,0,0,1,1959,1681.1357353462442) translate(54.025 51.9)"/><use xlink:href="#K" transform="matrix(1,0,0,1,1959,1681.1357353462442) translate(43.525 73.5)"/></g><path d="M2499 1681.14c0 33.13-35.82 60-80 60s-80-26.87-80-60c0-33.14 35.82-60 80-60s80 26.86 80 60z" stroke="#000" stroke-width="2" fill="#fff"/><g><use xlink:href="#L" transform="matrix(1,0,0,1,2339,1621.1357353462442) translate(26.549999999999997 63.15)"/><use xlink:href="#M" transform="matrix(1,0,0,1,2339,1621.1357353462442) translate(59.5 63.15)"/></g><path d="M2499 1881.14c0 33.13-35.82 60-80 60s-80-26.87-80-60c0-33.14 35.82-60 80-60s80 26.86 80 60z" stroke="#000" stroke-width="2" fill="#fff"/><g><use xlink:href="#L" transform="matrix(1,0,0,1,2339,1821.1357353462442) translate(38.074999999999996 63.15)"/><use xlink:href="#N" transform="matrix(1,0,0,1,2339,1821.1357353462442) translate(71.025 63.15)"/></g><path d="M2337 1681.14h-108v60h-90.5" stroke="#000" stroke-width="2" fill="none"/><path d="M2338 1681.12v.42l.03.6h-1.06v-2h1.06z"/><path d="M2123.24 1741.14l14.26-4.64v9.27z" stroke="#000" stroke-width="2"/><path d="M2337 1881.14h-108v-140h-90.5" stroke="#000" stroke-width="2" fill="none"/><path d="M2338 1881.12v.42l.03.6h-1.06v-2h1.06z"/><path d="M2123.24 1741.14l14.26-4.64v9.27z" stroke="#000" stroke-width="2"/><path d="M1582 378.86h187.5v1362.28H1957M1582.03 378.86H1578" stroke="#000" stroke-width="2" fill="none"/><path d="M1958 1741.12v.42l.03.6h-1.06v-2h1.06z"/><path d="M1582 378.86h188V280h188M1582.03 378.86H1578" stroke="#000" stroke-width="2" fill="none"/><path d="M1959 280v.4l.03.6h-1.06v-2h1.06z"/><path d="M1582 378.86h188V640h188M1582.03 378.86H1578" stroke="#000" stroke-width="2" fill="none"/><path d="M1959 640v.4l.03.6h-1.06v-2h1.06z"/><path d="M2120 2020c0 33.14-35.82 60-80 60s-80-26.86-80-60 35.82-60 80-60 80 26.86 80 60z" stroke="#000" stroke-width="2" fill="#fff"/><g><use xlink:href="#y" transform="matrix(1,0,0,1,1960,1960) translate(43.275 51.9)"/><use xlink:href="#Y" transform="matrix(1,0,0,1,1960,1960) translate(51.525 73.5)"/></g><path d="M1582 378.86h188V2020h188M1582.03 378.86H1578" stroke="#000" stroke-width="2" fill="none"/><path d="M1959 2020v.4l.03.6h-1.06v-2h1.06z"/><path d="M2120 2200c0 33.14-35.82 60-80 60s-80-26.86-80-60 35.82-60 80-60 80 26.86 80 60z" stroke="#000" stroke-width="2" fill="#fff"/><g><use xlink:href="#Z" transform="matrix(1,0,0,1,1960,2140) translate(36.629999999999995 40.65)"/><use xlink:href="#s" transform="matrix(1,0,0,1,1960,2140) translate(109.43 40.65)"/><use xlink:href="#aa" transform="matrix(1,0,0,1,1960,2140) translate(43.525 62.25)"/><use xlink:href="#q" transform="matrix(1,0,0,1,1960,2140) translate(102.525 62.25)"/><use xlink:href="#ab" transform="matrix(1,0,0,1,1960,2140) translate(53.03 83.85000000000001)"/></g><path d="M1582 378.86h188V2200h188M1582.03 378.86H1578" stroke="#000" stroke-width="2" fill="none"/><path d="M1959 2200v.4l.03.6h-1.06v-2h1.06z"/><path d="M342 558.86h188V460h188M342.03 558.86H338" stroke="#000" stroke-width="2" fill="none"/><path d="M719 460v.4l.03.6h-1.06v-2h1.06z"/><path d="M342 558.86h188V800h188M342.03 558.86H338" stroke="#000" stroke-width="2" fill="none"/><path d="M719 800v.4l.03.6h-1.06v-2h1.06z"/><path d="M342 558.86h188V960h188M342.03 558.86H338" stroke="#000" stroke-width="2" fill="none"/><path d="M719 960v.4l.03.6h-1.06v-2h1.06z"/><path d="M880 2001.14c0 33.13-35.82 60-80 60s-80-26.87-80-60c0-33.14 35.82-60 80-60s80 26.86 80 60z" stroke="#000" stroke-width="2" fill="#fff"/><g><use xlink:href="#y" transform="matrix(1,0,0,1,720,1941.1357353462442) translate(41.28 40.65)"/><use xlink:href="#ac" transform="matrix(1,0,0,1,720,1941.1357353462442) translate(39.074999999999996 62.25)"/><use xlink:href="#m" transform="matrix(1,0,0,1,720,1941.1357353462442) translate(110.92500000000001 62.25)"/><use xlink:href="#Y" transform="matrix(1,0,0,1,720,1941.1357353462442) translate(48.53 83.85000000000001)"/></g><path d="M342 558.86h188v1442.28h188M342.03 558.86H338" stroke="#000" stroke-width="2" fill="none"/><path d="M719 2001.12v.42l.03.6h-1.06v-2h1.06z"/><path d="M860 80h660v74.53H860z" stroke="#000" stroke-opacity="0" stroke-width="2" fill="#fff" fill-opacity="0"/><g><use xlink:href="#ad" transform="matrix(1,0,0,1,865,85) translate(15.815123456790161 21.511111111111106)"/><use xlink:href="#ae" transform="matrix(1,0,0,1,865,85) translate(118.73981481481485 21.511111111111106)"/><use xlink:href="#af" transform="matrix(1,0,0,1,865,85) translate(163.47993827160496 21.511111111111106)"/><use xlink:href="#ag" transform="matrix(1,0,0,1,865,85) translate(229.13364197530865 21.511111111111106)"/><use xlink:href="#ah" transform="matrix(1,0,0,1,865,85) translate(386.7324074074074 21.511111111111106)"/><use xlink:href="#ai" transform="matrix(1,0,0,1,865,85) translate(431.4725308641975 21.511111111111106)"/><use xlink:href="#aj" transform="matrix(1,0,0,1,865,85) translate(293.70432098765434 53.777777777777764)"/></g><defs><path d="M212-179c-10-28-35-45-73-45-59 0-87 40-87 99 0 60 29 101 89 101 43 0 62-24 78-52l27 14C228-24 195 4 139 4 59 4 22-46 18-125c-6-104 99-153 187-111 19 9 31 26 39 46" id="ak"/><path d="M24 0v-261h32V0H24" id="al"/><path d="M24-231v-30h32v30H24zM24 0v-190h32V0H24" id="am"/><path d="M100-194c63 0 86 42 84 106H49c0 40 14 67 53 68 26 1 43-12 49-29l28 8c-11 28-37 45-77 45C44 4 14-33 15-96c1-61 26-98 85-98zm52 81c6-60-76-77-97-28-3 7-6 17-6 28h103" id="an"/><path d="M117-194c89-4 53 116 60 194h-32v-121c0-31-8-49-39-48C34-167 62-67 57 0H25l-1-190h30c1 10-1 24 2 32 11-22 29-35 61-36" id="ao"/><path d="M59-47c-2 24 18 29 38 22v24C64 9 27 4 27-40v-127H5v-23h24l9-43h21v43h35v23H59v120" id="ap"/><g id="a"><use transform="matrix(0.05,0,0,0.05,0,0)" xlink:href="#ak"/><use transform="matrix(0.05,0,0,0.05,12.950000000000001,0)" xlink:href="#al"/><use transform="matrix(0.05,0,0,0.05,16.900000000000002,0)" xlink:href="#am"/><use transform="matrix(0.05,0,0,0.05,20.85,0)" xlink:href="#an"/><use transform="matrix(0.05,0,0,0.05,30.85,0)" xlink:href="#ao"/><use transform="matrix(0.05,0,0,0.05,40.85,0)" xlink:href="#ap"/><use transform="matrix(0.05,0,0,0.05,45.85,0)" xlink:href="#an"/></g><path d="M233-177c-1 41-23 64-60 70L243 0h-38l-65-103H63V0H30v-248c88 3 205-21 203 71zM63-129c60-2 137 13 137-47 0-61-80-42-137-45v92" id="aq"/><path d="M177-190C167-65 218 103 67 71c-23-6-38-20-44-43l32-5c15 47 100 32 89-28v-30C133-14 115 1 83 1 29 1 15-40 15-95c0-56 16-97 71-98 29-1 48 16 59 35 1-10 0-23 2-32h30zM94-22c36 0 50-32 50-73 0-42-14-75-50-75-39 0-46 34-46 75s6 73 46 73" id="ar"/><path d="M135-143c-3-34-86-38-87 0 15 53 115 12 119 90S17 21 10-45l28-5c4 36 97 45 98 0-10-56-113-15-118-90-4-57 82-63 122-42 12 7 21 19 24 35" id="as"/><path d="M114-163C36-179 61-72 57 0H25l-1-190h30c1 12-1 29 2 39 6-27 23-49 58-41v29" id="at"/><path d="M141-36C126-15 110 5 73 4 37 3 15-17 15-53c-1-64 63-63 125-63 3-35-9-54-41-54-24 1-41 7-42 31l-33-3c5-37 33-52 76-52 45 0 72 20 72 64v82c-1 20 7 32 28 27v20c-31 9-61-2-59-35zM48-53c0 20 12 33 32 33 41-3 63-29 60-74-43 2-92-5-92 41" id="au"/><g id="b"><use transform="matrix(0.05,0,0,0.05,0,0)" xlink:href="#aq"/><use transform="matrix(0.05,0,0,0.05,12.950000000000001,0)" xlink:href="#an"/><use transform="matrix(0.05,0,0,0.05,22.950000000000003,0)" xlink:href="#ar"/><use transform="matrix(0.05,0,0,0.05,32.95,0)" xlink:href="#am"/><use transform="matrix(0.05,0,0,0.05,36.900000000000006,0)" xlink:href="#as"/><use transform="matrix(0.05,0,0,0.05,45.900000000000006,0)" xlink:href="#ap"/><use transform="matrix(0.05,0,0,0.05,50.900000000000006,0)" xlink:href="#at"/><use transform="matrix(0.05,0,0,0.05,56.85,0)" xlink:href="#au"/><use transform="matrix(0.05,0,0,0.05,66.85000000000001,0)" xlink:href="#at"/><use transform="matrix(0.05,0,0,0.05,72.80000000000001,0)" xlink:href="#as"/><use transform="matrix(0.05,0,0,0.05,81.80000000000001,0)" xlink:href="#an"/></g><g id="c"><use transform="matrix(0.05,0,0,0.05,0,0)" xlink:href="#an"/><use transform="matrix(0.05,0,0,0.05,10,0)" xlink:href="#ao"/></g><g id="d"><use transform="matrix(0.05,0,0,0.05,0,0)" xlink:href="#an"/><use transform="matrix(0.05,0,0,0.05,10,0)" xlink:href="#al"/></g><path d="M210-169c-67 3-38 105-44 169h-31v-121c0-29-5-50-35-48C34-165 62-65 56 0H25l-1-190h30c1 10-1 24 2 32 10-44 99-50 107 0 11-21 27-35 58-36 85-2 47 119 55 194h-31v-121c0-29-5-49-35-48" id="av"/><g id="e"><use transform="matrix(0.05,0,0,0.05,0,0)" xlink:href="#as"/><use transform="matrix(0.05,0,0,0.05,9,0)" xlink:href="#am"/><use transform="matrix(0.05,0,0,0.05,12.949999999999998,0)" xlink:href="#as"/><use transform="matrix(0.05,0,0,0.05,21.95,0)" xlink:href="#ap"/><use transform="matrix(0.05,0,0,0.05,26.950000000000003,0)" xlink:href="#an"/><use transform="matrix(0.05,0,0,0.05,36.95,0)" xlink:href="#av"/><use transform="matrix(0.05,0,0,0.05,51.900000000000006,0)" xlink:href="#au"/></g><path d="M240 0l2-218c-23 76-54 145-80 218h-23L58-218 59 0H30v-248h44l77 211c21-75 51-140 76-211h43V0h-30" id="aw"/><path d="M100-194c62-1 85 37 85 99 1 63-27 99-86 99S16-35 15-95c0-66 28-99 85-99zM99-20c44 1 53-31 53-75 0-43-8-75-51-75s-53 32-53 75 10 74 51 75" id="ax"/><path d="M85-194c31 0 48 13 60 33l-1-100h32l1 261h-30c-2-10 0-23-3-31C134-8 116 4 85 4 32 4 16-35 15-94c0-66 23-100 70-100zm9 24c-40 0-46 34-46 75 0 40 6 74 45 74 42 0 51-32 51-76 0-42-9-74-50-73" id="ay"/><path d="M101-234c-31-9-42 10-38 44h38v23H63V0H32v-167H5v-23h27c-7-52 17-82 69-68v24" id="az"/><path d="M96-169c-40 0-48 33-48 73s9 75 48 75c24 0 41-14 43-38l32 2c-6 37-31 61-74 61-59 0-76-41-82-99-10-93 101-131 147-64 4 7 5 14 7 22l-32 3c-4-21-16-35-41-35" id="aA"/><g id="f"><use transform="matrix(0.05,0,0,0.05,0,0)" xlink:href="#aw"/><use transform="matrix(0.05,0,0,0.05,14.950000000000001,0)" xlink:href="#ax"/><use transform="matrix(0.05,0,0,0.05,24.950000000000003,0)" xlink:href="#ay"/><use transform="matrix(0.05,0,0,0.05,34.95,0)" xlink:href="#am"/><use transform="matrix(0.05,0,0,0.05,38.900000000000006,0)" xlink:href="#az"/><use transform="matrix(0.05,0,0,0.05,43.900000000000006,0)" xlink:href="#am"/><use transform="matrix(0.05,0,0,0.05,47.85000000000001,0)" xlink:href="#aA"/><use transform="matrix(0.05,0,0,0.05,56.85,0)" xlink:href="#au"/><use transform="matrix(0.05,0,0,0.05,66.85000000000001,0)" xlink:href="#at"/></g><g id="g"><use transform="matrix(0.05,0,0,0.05,0,0)" xlink:href="#ay"/><use transform="matrix(0.05,0,0,0.05,10,0)" xlink:href="#au"/><use transform="matrix(0.05,0,0,0.05,20,0)" xlink:href="#ap"/><use transform="matrix(0.05,0,0,0.05,25,0)" xlink:href="#ax"/><use transform="matrix(0.05,0,0,0.05,35,0)" xlink:href="#as"/></g><path d="M115-194c55 1 70 41 70 98S169 2 115 4C84 4 66-9 55-30l1 105H24l-1-265h31l2 30c10-21 28-34 59-34zm-8 174c40 0 45-34 45-75s-6-73-45-74c-42 0-51 32-51 76 0 43 10 73 51 73" id="aB"/><g id="h"><use transform="matrix(0.05,0,0,0.05,0,0)" xlink:href="#aB"/><use transform="matrix(0.05,0,0,0.05,10,0)" xlink:href="#an"/><use transform="matrix(0.05,0,0,0.05,20,0)" xlink:href="#at"/><use transform="matrix(0.05,0,0,0.05,25.950000000000003,0)" xlink:href="#as"/><use transform="matrix(0.05,0,0,0.05,34.95,0)" xlink:href="#ax"/><use transform="matrix(0.05,0,0,0.05,44.95,0)" xlink:href="#ao"/><use transform="matrix(0.05,0,0,0.05,54.95,0)" xlink:href="#au"/><use transform="matrix(0.05,0,0,0.05,64.95,0)" xlink:href="#al"/><use transform="matrix(0.05,0,0,0.05,68.9,0)" xlink:href="#an"/><use transform="matrix(0.05,0,0,0.05,78.9,0)" xlink:href="#as"/></g><path d="M205 0l-28-72H64L36 0H1l101-248h38L239 0h-34zm-38-99l-47-123c-12 45-31 82-46 123h93" id="aC"/><path d="M118-194c89-4 53 116 60 194h-32v-121c0-31-8-49-39-48C35-167 63-67 58 0H26l-1-190h30c1 10-1 24 2 32 11-22 29-35 61-36zm47-64c-3 23-9 48-36 47-26-1-65-44-74 0H39c4-23 8-48 36-47s64 44 74 0h16" id="aD"/><g id="i"><use transform="matrix(0.05,0,0,0.05,0,0)" xlink:href="#aC"/><use transform="matrix(0.05,0,0,0.05,12,0)" xlink:href="#aD"/><use transform="matrix(0.05,0,0,0.05,22,0)" xlink:href="#au"/><use transform="matrix(0.05,0,0,0.05,32,0)" xlink:href="#ay"/><use transform="matrix(0.05,0,0,0.05,42,0)" xlink:href="#am"/><use transform="matrix(0.05,0,0,0.05,45.95,0)" xlink:href="#at"/></g><path d="M84 4C-5 8 30-112 23-190h32v120c0 31 7 50 39 49 72-2 45-101 50-169h31l1 190h-30c-1-10 1-25-2-33-11 22-28 36-60 37" id="aE"/><g id="j"><use transform="matrix(0.05,0,0,0.05,0,0)" xlink:href="#aB"/><use transform="matrix(0.05,0,0,0.05,10,0)" xlink:href="#at"/><use transform="matrix(0.05,0,0,0.05,15.949999999999998,0)" xlink:href="#ax"/><use transform="matrix(0.05,0,0,0.05,25.950000000000003,0)" xlink:href="#ay"/><use transform="matrix(0.05,0,0,0.05,35.95,0)" xlink:href="#aE"/><use transform="matrix(0.05,0,0,0.05,45.95,0)" xlink:href="#aA"/><use transform="matrix(0.05,0,0,0.05,54.95,0)" xlink:href="#ap"/><use transform="matrix(0.05,0,0,0.05,59.95,0)" xlink:href="#ax"/><use transform="matrix(0.05,0,0,0.05,69.95,0)" xlink:href="#as"/></g><g id="k"><use transform="matrix(0.05,0,0,0.05,0,0)" xlink:href="#au"/><use transform="matrix(0.05,0,0,0.05,10,0)" xlink:href="#al"/></g><g id="l"><use transform="matrix(0.05,0,0,0.05,0,0)" xlink:href="#aA"/><use transform="matrix(0.05,0,0,0.05,9,0)" xlink:href="#au"/><use transform="matrix(0.05,0,0,0.05,19,0)" xlink:href="#at"/><use transform="matrix(0.05,0,0,0.05,24.95,0)" xlink:href="#at"/><use transform="matrix(0.05,0,0,0.05,30.899999999999995,0)" xlink:href="#am"/><use transform="matrix(0.05,0,0,0.05,34.85,0)" xlink:href="#ap"/><use transform="matrix(0.05,0,0,0.05,39.85,0)" xlink:href="#ax"/></g><g id="m"><use transform="matrix(0.05,0,0,0.05,0,0)" xlink:href="#ay"/><use transform="matrix(0.05,0,0,0.05,10,0)" xlink:href="#an"/></g><g id="n"><use transform="matrix(0.05,0,0,0.05,0,0)" xlink:href="#aA"/><use transform="matrix(0.05,0,0,0.05,9,0)" xlink:href="#ax"/><use transform="matrix(0.05,0,0,0.05,19,0)" xlink:href="#av"/><use transform="matrix(0.05,0,0,0.05,33.95,0)" xlink:href="#aB"/><use transform="matrix(0.05,0,0,0.05,43.95,0)" xlink:href="#at"/><use transform="matrix(0.05,0,0,0.05,49.900000000000006,0)" xlink:href="#au"/><use transform="matrix(0.05,0,0,0.05,59.900000000000006,0)" xlink:href="#as"/></g><g id="o"><use transform="matrix(0.05,0,0,0.05,0,0)" xlink:href="#aw"/><use transform="matrix(0.05,0,0,0.05,14.950000000000001,0)" xlink:href="#ax"/><use transform="matrix(0.05,0,0,0.05,24.950000000000003,0)" xlink:href="#ay"/><use transform="matrix(0.05,0,0,0.05,34.95,0)" xlink:href="#am"/><use transform="matrix(0.05,0,0,0.05,38.900000000000006,0)" xlink:href="#az"/><use transform="matrix(0.05,0,0,0.05,43.900000000000006,0)" xlink:href="#am"/><use transform="matrix(0.05,0,0,0.05,47.85000000000001,0)" xlink:href="#aA"/><use transform="matrix(0.05,0,0,0.05,56.85,0)" xlink:href="#au"/><use transform="matrix(0.05,0,0,0.05,66.85000000000001,0)" xlink:href="#at"/></g><g id="p"><use transform="matrix(0.05,0,0,0.05,0,0)" xlink:href="#aB"/><use transform="matrix(0.05,0,0,0.05,10,0)" xlink:href="#an"/><use transform="matrix(0.05,0,0,0.05,20,0)" xlink:href="#ay"/><use transform="matrix(0.05,0,0,0.05,30,0)" xlink:href="#am"/><use transform="matrix(0.05,0,0,0.05,33.95,0)" xlink:href="#ay"/><use transform="matrix(0.05,0,0,0.05,43.95,0)" xlink:href="#ax"/></g><g id="q"><use transform="matrix(0.05,0,0,0.05,0,0)" xlink:href="#ay"/><use transform="matrix(0.05,0,0,0.05,10,0)" xlink:href="#an"/><use transform="matrix(0.05,0,0,0.05,20,0)" xlink:href="#al"/></g><g id="r"><use transform="matrix(0.05,0,0,0.05,0,0)" xlink:href="#ak"/><use transform="matrix(0.05,0,0,0.05,12.950000000000001,0)" xlink:href="#ax"/><use transform="matrix(0.05,0,0,0.05,22.950000000000003,0)" xlink:href="#ao"/><use transform="matrix(0.05,0,0,0.05,32.95,0)" xlink:href="#az"/><use transform="matrix(0.05,0,0,0.05,37.95,0)" xlink:href="#am"/><use transform="matrix(0.05,0,0,0.05,41.900000000000006,0)" xlink:href="#at"/><use transform="matrix(0.05,0,0,0.05,47.85000000000001,0)" xlink:href="#av"/><use transform="matrix(0.05,0,0,0.05,62.80000000000001,0)" xlink:href="#au"/><use transform="matrix(0.05,0,0,0.05,72.80000000000001,0)" xlink:href="#at"/></g><g id="s"><use transform="matrix(0.05,0,0,0.05,0,0)" xlink:href="#an"/><use transform="matrix(0.05,0,0,0.05,10,0)" xlink:href="#al"/></g><path d="M179-190L93 31C79 59 56 82 12 73V49c39 6 53-20 64-50L1-190h34L92-34l54-156h33" id="aF"/><use transform="matrix(0.05,0,0,0.05,0,0)" xlink:href="#aF" id="t"/><g id="u"><use transform="matrix(0.05,0,0,0.05,0,0)" xlink:href="#az"/><use transform="matrix(0.05,0,0,0.05,5,0)" xlink:href="#ax"/><use transform="matrix(0.05,0,0,0.05,15,0)" xlink:href="#at"/><use transform="matrix(0.05,0,0,0.05,20.95,0)" xlink:href="#av"/><use transform="matrix(0.05,0,0,0.05,35.9,0)" xlink:href="#au"/></g><g id="v"><use transform="matrix(0.05,0,0,0.05,0,0)" xlink:href="#aB"/><use transform="matrix(0.05,0,0,0.05,10,0)" xlink:href="#au"/><use transform="matrix(0.05,0,0,0.05,20,0)" xlink:href="#ar"/><use transform="matrix(0.05,0,0,0.05,30,0)" xlink:href="#ax"/></g><g id="w"><use transform="matrix(0.05,0,0,0.05,0,0)" xlink:href="#ay"/><use transform="matrix(0.05,0,0,0.05,10,0)" xlink:href="#an"/><use transform="matrix(0.05,0,0,0.05,20,0)" xlink:href="#al"/></g><g id="x"><use transform="matrix(0.05,0,0,0.05,0,0)" xlink:href="#aA"/><use transform="matrix(0.05,0,0,0.05,9,0)" xlink:href="#ax"/><use transform="matrix(0.05,0,0,0.05,19,0)" xlink:href="#av"/><use transform="matrix(0.05,0,0,0.05,33.95,0)" xlink:href="#aB"/><use transform="matrix(0.05,0,0,0.05,43.95,0)" xlink:href="#at"/><use transform="matrix(0.05,0,0,0.05,49.900000000000006,0)" xlink:href="#au"/><use transform="matrix(0.05,0,0,0.05,59.900000000000006,0)" xlink:href="#as"/></g><path d="M137 0h-34L2-248h35l83 218 83-218h36" id="aG"/><path d="M9 0v-24l116-142H16v-24h144v24L44-24h123V0H9" id="aH"/><g id="y"><use transform="matrix(0.05,0,0,0.05,0,0)" xlink:href="#aG"/><use transform="matrix(0.05,0,0,0.05,11.65,0)" xlink:href="#am"/><use transform="matrix(0.05,0,0,0.05,15.600000000000001,0)" xlink:href="#as"/><use transform="matrix(0.05,0,0,0.05,24.6,0)" xlink:href="#aE"/><use transform="matrix(0.05,0,0,0.05,34.6,0)" xlink:href="#au"/><use transform="matrix(0.05,0,0,0.05,44.6,0)" xlink:href="#al"/><use transform="matrix(0.05,0,0,0.05,48.550000000000004,0)" xlink:href="#am"/><use transform="matrix(0.05,0,0,0.05,52.5,0)" xlink:href="#aH"/><use transform="matrix(0.05,0,0,0.05,61.5,0)" xlink:href="#au"/><use transform="matrix(0.05,0,0,0.05,71.5,0)" xlink:href="#at"/></g><g id="z"><use transform="matrix(0.05,0,0,0.05,0,0)" xlink:href="#aB"/><use transform="matrix(0.05,0,0,0.05,10,0)" xlink:href="#at"/><use transform="matrix(0.05,0,0,0.05,15.949999999999998,0)" xlink:href="#ax"/><use transform="matrix(0.05,0,0,0.05,25.950000000000003,0)" xlink:href="#ay"/><use transform="matrix(0.05,0,0,0.05,35.95,0)" xlink:href="#aE"/><use transform="matrix(0.05,0,0,0.05,45.95,0)" xlink:href="#aA"/><use transform="matrix(0.05,0,0,0.05,54.95,0)" xlink:href="#ap"/><use transform="matrix(0.05,0,0,0.05,59.95,0)" xlink:href="#ax"/><use transform="matrix(0.05,0,0,0.05,69.95,0)" xlink:href="#as"/></g><path d="M115-194c53 0 69 39 70 98 0 66-23 100-70 100C84 3 66-7 56-30L54 0H23l1-261h32v101c10-23 28-34 59-34zm-8 174c40 0 45-34 45-75 0-40-5-75-45-74-42 0-51 32-51 76 0 43 10 73 51 73" id="aI"/><g id="A"><use transform="matrix(0.05,0,0,0.05,0,0)" xlink:href="#ak"/><use transform="matrix(0.05,0,0,0.05,12.950000000000001,0)" xlink:href="#au"/><use transform="matrix(0.05,0,0,0.05,22.950000000000003,0)" xlink:href="#av"/><use transform="matrix(0.05,0,0,0.05,37.900000000000006,0)" xlink:href="#aI"/><use transform="matrix(0.05,0,0,0.05,47.900000000000006,0)" xlink:href="#am"/><use transform="matrix(0.05,0,0,0.05,51.85,0)" xlink:href="#au"/><use transform="matrix(0.05,0,0,0.05,61.85,0)" xlink:href="#at"/></g><g id="B"><use transform="matrix(0.05,0,0,0.05,0,0)" xlink:href="#aA"/><use transform="matrix(0.05,0,0,0.05,9,0)" xlink:href="#ax"/><use transform="matrix(0.05,0,0,0.05,19,0)" xlink:href="#ao"/><use transform="matrix(0.05,0,0,0.05,29,0)" xlink:href="#ap"/><use transform="matrix(0.05,0,0,0.05,34,0)" xlink:href="#at"/><use transform="matrix(0.05,0,0,0.05,39.95,0)" xlink:href="#au"/><use transform="matrix(0.05,0,0,0.05,49.95,0)" xlink:href="#as"/><use transform="matrix(0.05,0,0,0.05,58.95,0)" xlink:href="#an"/><use transform="matrix(0.05,0,0,0.05,68.95,0)" xlink:href="#aD"/><use transform="matrix(0.05,0,0,0.05,78.95,0)" xlink:href="#au"/></g><g id="C"><use transform="matrix(0.05,0,0,0.05,0,0)" xlink:href="#au"/><use transform="matrix(0.05,0,0,0.05,10,0)" xlink:href="#aA"/><use transform="matrix(0.05,0,0,0.05,19,0)" xlink:href="#aA"/><use transform="matrix(0.05,0,0,0.05,28,0)" xlink:href="#an"/><use transform="matrix(0.05,0,0,0.05,38,0)" xlink:href="#as"/><use transform="matrix(0.05,0,0,0.05,47,0)" xlink:href="#ax"/></g><path d="M30 0v-248h187v28H63v79h144v27H63v87h162V0H30" id="aJ"/><g id="D"><use transform="matrix(0.05,0,0,0.05,0,0)" xlink:href="#aJ"/><use transform="matrix(0.05,0,0,0.05,12,0)" xlink:href="#al"/><use transform="matrix(0.05,0,0,0.05,15.949999999999998,0)" xlink:href="#am"/><use transform="matrix(0.05,0,0,0.05,19.9,0)" xlink:href="#av"/><use transform="matrix(0.05,0,0,0.05,34.85,0)" xlink:href="#am"/><use transform="matrix(0.05,0,0,0.05,38.800000000000004,0)" xlink:href="#ao"/><use transform="matrix(0.05,0,0,0.05,48.800000000000004,0)" xlink:href="#au"/><use transform="matrix(0.05,0,0,0.05,58.800000000000004,0)" xlink:href="#at"/></g><g id="E"><use transform="matrix(0.05,0,0,0.05,0,0)" xlink:href="#aA"/><use transform="matrix(0.05,0,0,0.05,9,0)" xlink:href="#aE"/><use transform="matrix(0.05,0,0,0.05,19,0)" xlink:href="#an"/><use transform="matrix(0.05,0,0,0.05,29,0)" xlink:href="#ao"/><use transform="matrix(0.05,0,0,0.05,39,0)" xlink:href="#ap"/><use transform="matrix(0.05,0,0,0.05,44,0)" xlink:href="#au"/></g><g id="F"><use transform="matrix(0.05,0,0,0.05,0,0)" xlink:href="#aC"/><use transform="matrix(0.05,0,0,0.05,12,0)" xlink:href="#aA"/><use transform="matrix(0.05,0,0,0.05,21,0)" xlink:href="#aA"/><use transform="matrix(0.05,0,0,0.05,30,0)" xlink:href="#an"/><use transform="matrix(0.05,0,0,0.05,40,0)" xlink:href="#ay"/><use transform="matrix(0.05,0,0,0.05,50,0)" xlink:href="#an"/><use transform="matrix(0.05,0,0,0.05,60,0)" xlink:href="#at"/></g><g id="G"><use transform="matrix(0.05,0,0,0.05,0,0)" xlink:href="#as"/><use transform="matrix(0.05,0,0,0.05,9,0)" xlink:href="#am"/><use transform="matrix(0.05,0,0,0.05,12.949999999999998,0)" xlink:href="#as"/><use transform="matrix(0.05,0,0,0.05,21.95,0)" xlink:href="#ap"/><use transform="matrix(0.05,0,0,0.05,26.950000000000003,0)" xlink:href="#an"/><use transform="matrix(0.05,0,0,0.05,36.95,0)" xlink:href="#av"/><use transform="matrix(0.05,0,0,0.05,51.900000000000006,0)" xlink:href="#au"/></g><g id="H"><use transform="matrix(0.05,0,0,0.05,0,0)" xlink:href="#aA"/><use transform="matrix(0.05,0,0,0.05,9,0)" xlink:href="#ax"/><use transform="matrix(0.05,0,0,0.05,19,0)" xlink:href="#av"/><use transform="matrix(0.05,0,0,0.05,33.95,0)" xlink:href="#ax"/></g><g id="I"><use transform="matrix(0.05,0,0,0.05,0,0)" xlink:href="#aA"/><use transform="matrix(0.05,0,0,0.05,9,0)" xlink:href="#al"/><use transform="matrix(0.05,0,0,0.05,12.949999999999998,0)" xlink:href="#am"/><use transform="matrix(0.05,0,0,0.05,16.9,0)" xlink:href="#an"/><use transform="matrix(0.05,0,0,0.05,26.899999999999995,0)" xlink:href="#ao"/><use transform="matrix(0.05,0,0,0.05,36.9,0)" xlink:href="#ap"/><use transform="matrix(0.05,0,0,0.05,41.9,0)" xlink:href="#an"/></g><path d="M160-131c35 5 61 23 61 61C221 17 115-2 30 0v-248c76 3 177-17 177 60 0 33-19 50-47 57zm-97-11c50-1 110 9 110-42 0-47-63-36-110-37v79zm0 115c55-2 124 14 124-45 0-56-70-42-124-44v89" id="aK"/><g id="J"><use transform="matrix(0.05,0,0,0.05,0,0)" xlink:href="#aK"/><use transform="matrix(0.05,0,0,0.05,12,0)" xlink:href="#aE"/><use transform="matrix(0.05,0,0,0.05,22,0)" xlink:href="#as"/><use transform="matrix(0.05,0,0,0.05,31,0)" xlink:href="#aA"/><use transform="matrix(0.05,0,0,0.05,40,0)" xlink:href="#au"/><use transform="matrix(0.05,0,0,0.05,50,0)" xlink:href="#at"/></g><g id="K"><use transform="matrix(0.05,0,0,0.05,0,0)" xlink:href="#aB"/><use transform="matrix(0.05,0,0,0.05,10,0)" xlink:href="#at"/><use transform="matrix(0.05,0,0,0.05,15.949999999999998,0)" xlink:href="#ax"/><use transform="matrix(0.05,0,0,0.05,25.950000000000003,0)" xlink:href="#ay"/><use transform="matrix(0.05,0,0,0.05,35.95,0)" xlink:href="#aE"/><use transform="matrix(0.05,0,0,0.05,45.95,0)" xlink:href="#aA"/><use transform="matrix(0.05,0,0,0.05,54.95,0)" xlink:href="#ap"/><use transform="matrix(0.05,0,0,0.05,59.95,0)" xlink:href="#ax"/><use transform="matrix(0.05,0,0,0.05,69.95,0)" xlink:href="#as"/></g><path d="M30-248c87 1 191-15 191 75 0 78-77 80-158 76V0H30v-248zm33 125c57 0 124 11 124-50 0-59-68-47-124-48v98" id="aL"/><g id="L"><use transform="matrix(0.05,0,0,0.05,0,0)" xlink:href="#aL"/><use transform="matrix(0.05,0,0,0.05,12,0)" xlink:href="#ax"/><use transform="matrix(0.05,0,0,0.05,22,0)" xlink:href="#at"/></g><path d="M34 0v-190h32V0H34zM24-211c8-23 27-35 38-54h36v5l-58 49H24" id="aM"/><g id="M"><use transform="matrix(0.05,0,0,0.05,0,0)" xlink:href="#aA"/><use transform="matrix(0.05,0,0,0.05,9,0)" xlink:href="#au"/><use transform="matrix(0.05,0,0,0.05,19,0)" xlink:href="#ap"/><use transform="matrix(0.05,0,0,0.05,24,0)" xlink:href="#an"/><use transform="matrix(0.05,0,0,0.05,34,0)" xlink:href="#ar"/><use transform="matrix(0.05,0,0,0.05,44,0)" xlink:href="#ax"/><use transform="matrix(0.05,0,0,0.05,54,0)" xlink:href="#at"/><use transform="matrix(0.05,0,0,0.05,59.95,0)" xlink:href="#aM"/><use transform="matrix(0.05,0,0,0.05,64.95,0)" xlink:href="#au"/><use transform="matrix(0.05,0,0,0.05,74.95,0)" xlink:href="#as"/></g><g id="N"><use transform="matrix(0.05,0,0,0.05,0,0)" xlink:href="#ao"/><use transform="matrix(0.05,0,0,0.05,10,0)" xlink:href="#ax"/><use transform="matrix(0.05,0,0,0.05,20,0)" xlink:href="#av"/><use transform="matrix(0.05,0,0,0.05,34.95,0)" xlink:href="#aI"/><use transform="matrix(0.05,0,0,0.05,44.95,0)" xlink:href="#at"/><use transform="matrix(0.05,0,0,0.05,50.900000000000006,0)" xlink:href="#an"/></g><g id="O"><use transform="matrix(0.05,0,0,0.05,0,0)" xlink:href="#aC"/><use transform="matrix(0.05,0,0,0.05,12,0)" xlink:href="#ay"/><use transform="matrix(0.05,0,0,0.05,22,0)" xlink:href="#av"/><use transform="matrix(0.05,0,0,0.05,36.95,0)" xlink:href="#am"/><use transform="matrix(0.05,0,0,0.05,40.900000000000006,0)" xlink:href="#ao"/><use transform="matrix(0.05,0,0,0.05,50.900000000000006,0)" xlink:href="#am"/><use transform="matrix(0.05,0,0,0.05,54.85,0)" xlink:href="#as"/><use transform="matrix(0.05,0,0,0.05,63.85,0)" xlink:href="#ap"/><use transform="matrix(0.05,0,0,0.05,68.85000000000001,0)" xlink:href="#at"/><use transform="matrix(0.05,0,0,0.05,74.80000000000001,0)" xlink:href="#au"/><use transform="matrix(0.05,0,0,0.05,84.80000000000001,0)" xlink:href="#ay"/><use transform="matrix(0.05,0,0,0.05,94.80000000000001,0)" xlink:href="#ax"/><use transform="matrix(0.05,0,0,0.05,104.80000000000001,0)" xlink:href="#at"/></g><g id="P"><use transform="matrix(0.05,0,0,0.05,0,0)" xlink:href="#aE"/><use transform="matrix(0.05,0,0,0.05,10,0)" xlink:href="#ao"/></g><g id="Q"><use transform="matrix(0.05,0,0,0.05,0,0)" xlink:href="#aB"/><use transform="matrix(0.05,0,0,0.05,10,0)" xlink:href="#at"/><use transform="matrix(0.05,0,0,0.05,15.949999999999998,0)" xlink:href="#ax"/><use transform="matrix(0.05,0,0,0.05,25.950000000000003,0)" xlink:href="#ay"/><use transform="matrix(0.05,0,0,0.05,35.95,0)" xlink:href="#aE"/><use transform="matrix(0.05,0,0,0.05,45.95,0)" xlink:href="#aA"/><use transform="matrix(0.05,0,0,0.05,54.95,0)" xlink:href="#ap"/><use transform="matrix(0.05,0,0,0.05,59.95,0)" xlink:href="#ax"/></g><path d="M30-248c118-7 216 8 213 122C240-48 200 0 122 0H30v-248zM63-27c89 8 146-16 146-99s-60-101-146-95v194" id="aN"/><g id="R"><use transform="matrix(0.05,0,0,0.05,0,0)" xlink:href="#aN"/><use transform="matrix(0.05,0,0,0.05,12.950000000000001,0)" xlink:href="#au"/><use transform="matrix(0.05,0,0,0.05,22.950000000000003,0)" xlink:href="#at"/></g><g id="S"><use transform="matrix(0.05,0,0,0.05,0,0)" xlink:href="#ay"/><use transform="matrix(0.05,0,0,0.05,10,0)" xlink:href="#an"/></g><path d="M24-231v-30h32v30H24zM-9 49c24 4 33-6 33-30v-209h32V24c2 40-23 58-65 49V49" id="aO"/><g id="T"><use transform="matrix(0.05,0,0,0.05,0,0)" xlink:href="#aI"/><use transform="matrix(0.05,0,0,0.05,10,0)" xlink:href="#au"/><use transform="matrix(0.05,0,0,0.05,20,0)" xlink:href="#aO"/><use transform="matrix(0.05,0,0,0.05,23.95,0)" xlink:href="#au"/></g><g id="U"><use transform="matrix(0.05,0,0,0.05,0,0)" xlink:href="#aC"/><use transform="matrix(0.05,0,0,0.05,12,0)" xlink:href="#aD"/><use transform="matrix(0.05,0,0,0.05,22,0)" xlink:href="#au"/><use transform="matrix(0.05,0,0,0.05,32,0)" xlink:href="#ay"/><use transform="matrix(0.05,0,0,0.05,42,0)" xlink:href="#am"/><use transform="matrix(0.05,0,0,0.05,45.95,0)" xlink:href="#at"/></g><g id="V"><use transform="matrix(0.05,0,0,0.05,0,0)" xlink:href="#aE"/><use transform="matrix(0.05,0,0,0.05,10,0)" xlink:href="#ao"/><use transform="matrix(0.05,0,0,0.05,20,0)" xlink:href="#au"/></g><path d="M100-194c62-1 85 37 85 99 1 63-27 99-86 99S16-35 15-95c0-66 28-99 85-99zM99-20c44 1 53-31 53-75 0-43-8-75-51-75s-53 32-53 75 10 74 51 75zM76-211c8-23 27-35 38-54h36v5l-58 49H76" id="aP"/><g id="W"><use transform="matrix(0.05,0,0,0.05,0,0)" xlink:href="#aB"/><use transform="matrix(0.05,0,0,0.05,10,0)" xlink:href="#at"/><use transform="matrix(0.05,0,0,0.05,15.949999999999998,0)" xlink:href="#ax"/><use transform="matrix(0.05,0,0,0.05,25.950000000000003,0)" xlink:href="#av"/><use transform="matrix(0.05,0,0,0.05,40.9,0)" xlink:href="#ax"/><use transform="matrix(0.05,0,0,0.05,50.9,0)" xlink:href="#aA"/><use transform="matrix(0.05,0,0,0.05,59.900000000000006,0)" xlink:href="#am"/><use transform="matrix(0.05,0,0,0.05,63.85,0)" xlink:href="#aP"/><use transform="matrix(0.05,0,0,0.05,73.85,0)" xlink:href="#ao"/></g><g id="X"><use transform="matrix(0.05,0,0,0.05,0,0)" xlink:href="#au"/><use transform="matrix(0.05,0,0,0.05,10,0)" xlink:href="#ay"/><use transform="matrix(0.05,0,0,0.05,20,0)" xlink:href="#av"/><use transform="matrix(0.05,0,0,0.05,34.95,0)" xlink:href="#am"/><use transform="matrix(0.05,0,0,0.05,38.900000000000006,0)" xlink:href="#ao"/><use transform="matrix(0.05,0,0,0.05,48.900000000000006,0)" xlink:href="#am"/><use transform="matrix(0.05,0,0,0.05,52.85,0)" xlink:href="#as"/><use transform="matrix(0.05,0,0,0.05,61.85,0)" xlink:href="#ap"/><use transform="matrix(0.05,0,0,0.05,66.85000000000001,0)" xlink:href="#at"/><use transform="matrix(0.05,0,0,0.05,72.80000000000001,0)" xlink:href="#au"/><use transform="matrix(0.05,0,0,0.05,82.80000000000001,0)" xlink:href="#ay"/><use transform="matrix(0.05,0,0,0.05,92.80000000000001,0)" xlink:href="#ax"/><use transform="matrix(0.05,0,0,0.05,102.80000000000001,0)" xlink:href="#at"/></g><g id="Y"><use transform="matrix(0.05,0,0,0.05,0,0)" xlink:href="#aB"/><use transform="matrix(0.05,0,0,0.05,10,0)" xlink:href="#an"/><use transform="matrix(0.05,0,0,0.05,20,0)" xlink:href="#ay"/><use transform="matrix(0.05,0,0,0.05,30,0)" xlink:href="#am"/><use transform="matrix(0.05,0,0,0.05,33.95,0)" xlink:href="#ay"/><use transform="matrix(0.05,0,0,0.05,43.95,0)" xlink:href="#ax"/><use transform="matrix(0.05,0,0,0.05,53.95,0)" xlink:href="#as"/></g><g id="Z"><use transform="matrix(0.05,0,0,0.05,0,0)" xlink:href="#ak"/><use transform="matrix(0.05,0,0,0.05,12.950000000000001,0)" xlink:href="#au"/><use transform="matrix(0.05,0,0,0.05,22.950000000000003,0)" xlink:href="#av"/><use transform="matrix(0.05,0,0,0.05,37.900000000000006,0)" xlink:href="#aI"/><use transform="matrix(0.05,0,0,0.05,47.900000000000006,0)" xlink:href="#am"/><use transform="matrix(0.05,0,0,0.05,51.85,0)" xlink:href="#au"/><use transform="matrix(0.05,0,0,0.05,61.85,0)" xlink:href="#at"/></g><g id="aa"><use transform="matrix(0.05,0,0,0.05,0,0)" xlink:href="#an"/><use transform="matrix(0.05,0,0,0.05,10,0)" xlink:href="#as"/><use transform="matrix(0.05,0,0,0.05,19,0)" xlink:href="#ap"/><use transform="matrix(0.05,0,0,0.05,24,0)" xlink:href="#au"/><use transform="matrix(0.05,0,0,0.05,34,0)" xlink:href="#ay"/><use transform="matrix(0.05,0,0,0.05,44,0)" xlink:href="#ax"/></g><g id="ab"><use transform="matrix(0.05,0,0,0.05,0,0)" xlink:href="#aB"/><use transform="matrix(0.05,0,0,0.05,10,0)" xlink:href="#an"/><use transform="matrix(0.05,0,0,0.05,20,0)" xlink:href="#ay"/><use transform="matrix(0.05,0,0,0.05,30,0)" xlink:href="#am"/><use transform="matrix(0.05,0,0,0.05,33.95,0)" xlink:href="#ay"/><use transform="matrix(0.05,0,0,0.05,43.95,0)" xlink:href="#ax"/></g><path d="M106-169C34-169 62-67 57 0H25v-261h32l-1 103c12-21 28-36 61-36 89 0 53 116 60 194h-32v-121c2-32-8-49-39-48" id="aQ"/><g id="ac"><use transform="matrix(0.05,0,0,0.05,0,0)" xlink:href="#aQ"/><use transform="matrix(0.05,0,0,0.05,10,0)" xlink:href="#am"/><use transform="matrix(0.05,0,0,0.05,13.949999999999998,0)" xlink:href="#as"/><use transform="matrix(0.05,0,0,0.05,22.95,0)" xlink:href="#ap"/><use transform="matrix(0.05,0,0,0.05,27.950000000000003,0)" xlink:href="#aP"/><use transform="matrix(0.05,0,0,0.05,37.95,0)" xlink:href="#at"/><use transform="matrix(0.05,0,0,0.05,43.900000000000006,0)" xlink:href="#am"/><use transform="matrix(0.05,0,0,0.05,47.85000000000001,0)" xlink:href="#aA"/><use transform="matrix(0.05,0,0,0.05,56.85,0)" xlink:href="#ax"/></g><path d="M67-125c0 53 21 87 73 88 37 1 54-22 65-47l45 17C233-25 199 4 140 4 58 4 20-42 15-125 8-235 124-281 211-232c18 10 29 29 36 50l-46 12c-8-25-30-41-62-41-52 0-71 34-72 86" id="aR"/><path d="M199 0l-22-63H83L61 0H9l90-248h61L250 0h-51zm-33-102l-36-108c-10 38-24 72-36 108h72" id="aS"/><path d="M169-182c-1-43-94-46-97-3 18 66 151 10 154 114 3 95-165 93-204 36-6-8-10-19-12-30l50-8c3 46 112 56 116 5-17-69-150-10-154-114-4-87 153-88 188-35 5 8 8 18 10 28" id="aT"/><path d="M140-251c80 0 125 45 125 126S219 4 139 4C58 4 15-44 15-125s44-126 125-126zm-1 214c52 0 73-35 73-88 0-50-21-86-72-86-52 0-73 35-73 86s22 88 72 88" id="aU"/><g id="ad"><use transform="matrix(0.07469135802469135,0,0,0.07469135802469135,0,0)" xlink:href="#aR"/><use transform="matrix(0.07469135802469135,0,0,0.07469135802469135,19.34506172839506,0)" xlink:href="#aS"/><use transform="matrix(0.07469135802469135,0,0,0.07469135802469135,38.69012345679012,0)" xlink:href="#aT"/><use transform="matrix(0.07469135802469135,0,0,0.07469135802469135,56.61604938271604,0)" xlink:href="#aU"/><use transform="matrix(0.07469135802469135,0,0,0.07469135802469135,77.52962962962961,0)" xlink:href="#aT"/></g><path d="M24-248c120-7 223 5 221 122C244-46 201 0 124 0H24v-248zM76-40c74 7 117-18 117-86 0-67-45-88-117-82v168" id="aV"/><path d="M24 0v-248h195v40H76v63h132v40H76v65h150V0H24" id="aW"/><g id="ae"><use transform="matrix(0.07469135802469135,0,0,0.07469135802469135,0,0)" xlink:href="#aV"/><use transform="matrix(0.07469135802469135,0,0,0.07469135802469135,19.34506172839506,0)" xlink:href="#aW"/></g><path d="M238-95c0 69-44 99-111 99C63 4 22-25 22-93v-155h51v151c-1 38 19 59 55 60 90 1 49-130 58-211h52v153" id="aX"/><g id="af"><use transform="matrix(0.07469135802469135,0,0,0.07469135802469135,0,0)" xlink:href="#aX"/><use transform="matrix(0.07469135802469135,0,0,0.07469135802469135,19.34506172839506,0)" xlink:href="#aT"/><use transform="matrix(0.07469135802469135,0,0,0.07469135802469135,37.27098765432098,0)" xlink:href="#aU"/></g><path d="M24-248c93 1 206-16 204 79-1 75-69 88-152 82V0H24v-248zm52 121c47 0 100 7 100-41 0-47-54-39-100-39v80" id="aY"/><path d="M240-174c0 40-23 61-54 70L253 0h-59l-57-94H76V0H24v-248c93 4 217-23 216 74zM76-134c48-2 112 12 112-38 0-48-66-32-112-35v73" id="aZ"/><path d="M146-102V0H94v-102L6-248h54l60 105 60-105h54" id="ba"/><path d="M136-208V0H84v-208H4v-40h212v40h-80" id="bb"/><g id="ag"><use transform="matrix(0.07469135802469135,0,0,0.07469135802469135,0,0)" xlink:href="#aY"/><use transform="matrix(0.07469135802469135,0,0,0.07469135802469135,17.925925925925924,0)" xlink:href="#aZ"/><use transform="matrix(0.07469135802469135,0,0,0.07469135802469135,37.27098765432098,0)" xlink:href="#aU"/><use transform="matrix(0.07469135802469135,0,0,0.07469135802469135,58.18456790123456,0)" xlink:href="#ba"/><use transform="matrix(0.07469135802469135,0,0,0.07469135802469135,76.11049382716048,0)" xlink:href="#aW"/><use transform="matrix(0.07469135802469135,0,0,0.07469135802469135,94.0364197530864,0)" xlink:href="#aR"/><use transform="matrix(0.07469135802469135,0,0,0.07469135802469135,113.38148148148147,0)" xlink:href="#bb"/><use transform="matrix(0.07469135802469135,0,0,0.07469135802469135,129.21604938271602,0)" xlink:href="#aU"/></g><g id="ah"><use transform="matrix(0.07469135802469135,0,0,0.07469135802469135,0,0)" xlink:href="#aV"/><use transform="matrix(0.07469135802469135,0,0,0.07469135802469135,19.34506172839506,0)" xlink:href="#aW"/></g><path d="M24 0v-248h52v208h133V0H24" id="bc"/><path d="M24 0v-248h52V0H24" id="bd"/><path d="M175 0L67-191c6 58 2 128 3 191H24v-248h59L193-55c-6-58-2-129-3-193h46V0h-61" id="be"/><g id="ai"><use transform="matrix(0.07469135802469135,0,0,0.07469135802469135,0,0)" xlink:href="#aS"/><use transform="matrix(0.07469135802469135,0,0,0.07469135802469135,19.34506172839506,0)" xlink:href="#aY"/><use transform="matrix(0.07469135802469135,0,0,0.07469135802469135,37.27098765432098,0)" xlink:href="#bc"/><use transform="matrix(0.07469135802469135,0,0,0.07469135802469135,53.62839506172838,0)" xlink:href="#bd"/><use transform="matrix(0.07469135802469135,0,0,0.07469135802469135,61.09753086419751,0)" xlink:href="#aR"/><use transform="matrix(0.07469135802469135,0,0,0.07469135802469135,80.44259259259258,0)" xlink:href="#aS"/><use transform="matrix(0.07469135802469135,0,0,0.07469135802469135,99.78765432098763,0)" xlink:href="#aR"/><use transform="matrix(0.07469135802469135,0,0,0.07469135802469135,119.13271604938268,0)" xlink:href="#bd"/><use transform="matrix(0.07469135802469135,0,0,0.07469135802469135,126.60185185185182,0)" xlink:href="#aU"/><use transform="matrix(0.07469135802469135,0,0,0.07469135802469135,147.5154320987654,0)" xlink:href="#be"/><use transform="matrix(0.07469135802469135,0,0,0.07469135802469135,166.86049382716044,0)" xlink:href="#aW"/><use transform="matrix(0.07469135802469135,0,0,0.07469135802469135,184.78641975308636,0)" xlink:href="#aT"/></g><path d="M275 0h-61l-44-196L126 0H64L0-248h53L97-49l45-199h58l43 199 44-199h52" id="bf"/><path d="M182-130c37 4 62 22 62 59C244 23 116-4 24 0v-248c84 5 203-23 205 63 0 31-19 50-47 55zM76-148c40-3 101 13 101-30 0-44-60-28-101-31v61zm0 110c48-3 116 14 116-37 0-48-69-32-116-35v72" id="bg"/><g id="aj"><use transform="matrix(0.07469135802469135,0,0,0.07469135802469135,0,0)" xlink:href="#bf"/><use transform="matrix(0.07469135802469135,0,0,0.07469135802469135,25.320370370370366,0)" xlink:href="#aW"/><use transform="matrix(0.07469135802469135,0,0,0.07469135802469135,43.2462962962963,0)" xlink:href="#bg"/></g></defs></g></svg>